<svg xmlns="http://www.w3.org/2000/svg" viewBox="0 0 1200 900">
  <rect width="1200" height="900" fill="#131316"/>
  <g stroke="#1A1A1E" stroke-width="1"><line x1="90" y1="0" x2="90" y2="900"/><line x1="180" y1="0" x2="180" y2="900"/><line x1="270" y1="0" x2="270" y2="900"/><line x1="360" y1="0" x2="360" y2="900"/><line x1="450" y1="0" x2="450" y2="900"/><line x1="540" y1="0" x2="540" y2="900"/><line x1="630" y1="0" x2="630" y2="900"/><line x1="720" y1="0" x2="720" y2="900"/><line x1="810" y1="0" x2="810" y2="900"/><line x1="900" y1="0" x2="900" y2="900"/><line x1="990" y1="0" x2="990" y2="900"/><line x1="1080" y1="0" x2="1080" y2="900"/><line x1="1170" y1="0" x2="1170" y2="900"/><line x1="0" y1="90" x2="1200" y2="90"/><line x1="0" y1="180" x2="1200" y2="180"/><line x1="0" y1="270" x2="1200" y2="270"/><line x1="0" y1="360" x2="1200" y2="360"/><line x1="0" y1="450" x2="1200" y2="450"/><line x1="0" y1="540" x2="1200" y2="540"/><line x1="0" y1="630" x2="1200" y2="630"/><line x1="0" y1="720" x2="1200" y2="720"/><line x1="0" y1="810" x2="1200" y2="810"/></g>
  <g stroke="#1E1E23" stroke-width="1">
    <line x1="0" y1="0" x2="1200" y2="900"/>
    <line x1="1200" y1="0" x2="0" y2="900"/>
  </g>
  <g transform="translate(411,225) scale(15.75)" fill="none" stroke="#D9FF3F" stroke-width="1.1" stroke-linecap="round" stroke-linejoin="round" opacity="0.85"><path d="M3 21V8l6 4V8l6 4V4h6v17H3z"/></g>
  <g font-family="Arial, Helvetica, sans-serif">
    <text x="48" y="792" fill="#D9FF3F" font-size="15" font-weight="bold" letter-spacing="5">PLACEHOLDER</text>
    <text x="48" y="834" fill="#F4F1EC" font-size="30" font-weight="bold" letter-spacing="1">PRODUCTION FACILITY</text>
    <text x="48" y="864" fill="#6E6A66" font-size="15">Replace with a factory / team photo</text>
  </g>
  <rect x="1" y="1" width="1198" height="898" fill="none" stroke="#232328" stroke-width="2"/>
</svg>
