<svg xmlns="http://www.w3.org/2000/svg" viewBox="0 0 1200 750">
  <rect width="1200" height="750" fill="#131316"/>
  <g stroke="#1A1A1E" stroke-width="1"><line x1="90" y1="0" x2="90" y2="750"/><line x1="180" y1="0" x2="180" y2="750"/><line x1="270" y1="0" x2="270" y2="750"/><line x1="360" y1="0" x2="360" y2="750"/><line x1="450" y1="0" x2="450" y2="750"/><line x1="540" y1="0" x2="540" y2="750"/><line x1="630" y1="0" x2="630" y2="750"/><line x1="720" y1="0" x2="720" y2="750"/><line x1="810" y1="0" x2="810" y2="750"/><line x1="900" y1="0" x2="900" y2="750"/><line x1="990" y1="0" x2="990" y2="750"/><line x1="1080" y1="0" x2="1080" y2="750"/><line x1="1170" y1="0" x2="1170" y2="750"/><line x1="0" y1="90" x2="1200" y2="90"/><line x1="0" y1="180" x2="1200" y2="180"/><line x1="0" y1="270" x2="1200" y2="270"/><line x1="0" y1="360" x2="1200" y2="360"/><line x1="0" y1="450" x2="1200" y2="450"/><line x1="0" y1="540" x2="1200" y2="540"/><line x1="0" y1="630" x2="1200" y2="630"/><line x1="0" y1="720" x2="1200" y2="720"/></g>
  <g stroke="#1E1E23" stroke-width="1">
    <line x1="0" y1="0" x2="1200" y2="750"/>
    <line x1="1200" y1="0" x2="0" y2="750"/>
  </g>
  <g transform="translate(442,188) scale(13.12)" fill="none" stroke="#D9FF3F" stroke-width="1.1" stroke-linecap="round" stroke-linejoin="round" opacity="0.85"><path d="M6 9V3h12v6M6 14H4a2 2 0 0 1-2-2v-1a2 2 0 0 1 2-2h16a2 2 0 0 1 2 2v1a2 2 0 0 1-2 2h-2"/><rect x="6" y="14" width="12" height="7"/></g>
  <g font-family="Arial, Helvetica, sans-serif">
    <text x="48" y="642" fill="#D9FF3F" font-size="15" font-weight="bold" letter-spacing="5">PLACEHOLDER</text>
    <text x="48" y="684" fill="#F4F1EC" font-size="30" font-weight="bold" letter-spacing="1">FACILITY FLOOR</text>
    <text x="48" y="714" fill="#6E6A66" font-size="15">Replace with a machinery / floor photo</text>
  </g>
  <rect x="1" y="1" width="1198" height="748" fill="none" stroke="#232328" stroke-width="2"/>
</svg>
