<svg xmlns="http://www.w3.org/2000/svg" viewBox="0 0 800 1000">
  <rect width="800" height="1000" fill="#131316"/>
  <g stroke="#1A1A1E" stroke-width="1"><line x1="90" y1="0" x2="90" y2="1000"/><line x1="180" y1="0" x2="180" y2="1000"/><line x1="270" y1="0" x2="270" y2="1000"/><line x1="360" y1="0" x2="360" y2="1000"/><line x1="450" y1="0" x2="450" y2="1000"/><line x1="540" y1="0" x2="540" y2="1000"/><line x1="630" y1="0" x2="630" y2="1000"/><line x1="720" y1="0" x2="720" y2="1000"/><line x1="0" y1="90" x2="800" y2="90"/><line x1="0" y1="180" x2="800" y2="180"/><line x1="0" y1="270" x2="800" y2="270"/><line x1="0" y1="360" x2="800" y2="360"/><line x1="0" y1="450" x2="800" y2="450"/><line x1="0" y1="540" x2="800" y2="540"/><line x1="0" y1="630" x2="800" y2="630"/><line x1="0" y1="720" x2="800" y2="720"/><line x1="0" y1="810" x2="800" y2="810"/><line x1="0" y1="900" x2="800" y2="900"/><line x1="0" y1="990" x2="800" y2="990"/></g>
  <g stroke="#1E1E23" stroke-width="1"><line x1="0" y1="0" x2="800" y2="1000"/><line x1="800" y1="0" x2="0" y2="1000"/></g>
  <g transform="translate(220,270) scale(15)" fill="none" stroke="#D9FF3F" stroke-width="1.1" stroke-linecap="round" stroke-linejoin="round" opacity="0.85"><path d="M8 3 C8 6 6 8.2 5 8.8 V21 H19 V8.8 C18 8.2 16 6 16 3 C14.9 4 13.5 4.6 12 4.6 C10.5 4.6 9.1 4 8 3 Z"/></g>
  <g font-family="Arial, Helvetica, sans-serif">
    <text x="48" y="892" fill="#D9FF3F" font-size="15" font-weight="bold" letter-spacing="5">PLACEHOLDER</text>
    <text x="48" y="934" fill="#F4F1EC" font-size="30" font-weight="bold" letter-spacing="1">BASKETBALL</text>
    <text x="48" y="964" fill="#6E6A66" font-size="15">Replace with a reversible jersey mockup</text>
  </g>
  <rect x="1" y="1" width="798" height="998" fill="none" stroke="#232328" stroke-width="2"/>
</svg>
